<svg version="1" xmlns="http://www.w3.org/2000/svg" width="641.333" height="641.333" viewBox="0 0 481.000000 481.000000"><path d="M393.8 2.1C357 10.9 334.1 47 341.6 84.3c.9 3.9 2.4 9.1 3.5 11.4 1 2.4 1.9 4.5 1.9 4.9 0 .3 2 3.6 4.4 7.2 9.9 15.1 22.5 24.1 42.1 30.3 6.6 2.1 24.1 1.9 33-.3 25.4-6.3 45.1-25.9 51.4-51.2 2.6-10.5 2.2-26.8-.9-36.6-5.3-16.7-14.6-29-29-38.4C435.7 3.6 426.8.9 411.5.5c-7-.2-12.3.3-17.7 1.6z"/><path d="M42.5 57.4C23.1 62.1 7.3 77.6 2.1 96.9 0 104.7 0 104.8.2 271.1l.3 166.4 2.6 6.7c7.2 18.6 21.6 31.1 40.9 35.7 4.9 1.2 334.8 1.1 338.5-.1 20.2-6.4 32.7-17.8 39.7-36.4l2.3-5.9.3-131.7.3-131.6H410l-15-.1v127.5c0 143.9.5 134-7.7 142s5.7 7.4-174.9 7.4c-176.6 0-165.3.4-173.3-5.9-2-1.6-4.8-5.1-6.1-7.8l-2.5-4.8-.3-162c-.2-141.4 0-162.6 1.3-167 1.8-5.9 7.3-12.4 13-15.1 3.9-1.8 8.7-1.9 132.4-2.2 70.7-.1 128.7-.4 128.9-.6.3-.4.6-23 .3-27.9-.1-1.6-6.7-1.7-129.3-1.6-98.2.1-130.5.4-134.3 1.3z"/><path d="M140.7 264.7c.1 47.8.2 87.1.2 87.5.1.5 8.1.8 17.9.8h17.9l-.1-55.8c-.1-30.6 0-56.3.3-57 .3-1.3 2.4 1.9 18.9 29 4.2 7 8.9 14.7 10.4 17 1.5 2.4 3.1 5 3.5 5.8.4.8 2.5 4.4 4.7 8.1 2.3 3.6 4.6 7.4 5.3 8.5.6 1 6.9 11.4 14 23.1l12.8 21.2 18.3.1H283V178h-36l-.2 57.7c-.2 36.5-.6 57.1-1.2 55.8-.5-1.1-2.1-3.8-3.5-6s-4.4-7-6.6-10.7c-2.2-3.7-8-13.4-13-21.5-4.9-8.1-10.1-16.6-11.5-18.9-1.4-2.3-9.7-15.9-18.5-30.3L176.6 178h-36.1l.2 86.7z"/></svg>